<svg width="76" height="73" viewBox="0 0 76 73" fill="none" xmlns="http://www.w3.org/2000/svg">
<path fill-rule="evenodd" clip-rule="evenodd" d="M3.71276 17.7094C2.75662 17.3559 1.76303 17.0778 0.739094 16.8822C0.663917 16.8679 0.588579 16.854 0.513069 16.8405C-0.171023 16.7184 -0.171023 15.7372 0.513069 15.6151C0.588579 15.6016 0.663917 15.5877 0.739094 15.5734C1.76303 15.3778 2.75662 15.0997 3.71276 14.7462C4.28495 14.5347 4.84375 14.2962 5.3876 14.0322C9.15386 12.204 12.204 9.15387 14.0323 5.3876C14.2962 4.84375 14.5348 4.28497 14.7462 3.71276C15.0997 2.75662 15.3778 1.76303 15.5734 0.739094C15.5877 0.663917 15.6016 0.588579 15.6151 0.513069C15.7372 -0.171023 16.7184 -0.171023 16.8405 0.513069C16.854 0.588579 16.8679 0.663917 16.8822 0.739094C17.0778 1.76303 17.3559 2.75662 17.7094 3.71276C17.9209 4.28496 18.1594 4.84375 18.4234 5.3876C20.2516 9.15387 23.3017 12.204 27.0681 14.0322C27.6119 14.2962 28.1707 14.5347 28.7428 14.7462C29.699 15.0997 30.6926 15.3778 31.7166 15.5734C31.7917 15.5877 31.867 15.6016 31.9425 15.6151C32.6267 15.7372 32.6267 16.7184 31.9425 16.8405C31.867 16.854 31.7917 16.8679 31.7166 16.8822C30.6926 17.0778 29.699 17.3559 28.7428 17.7094C28.1707 17.9209 27.6119 18.1594 27.0681 18.4235C23.3017 20.2516 20.2516 23.3018 18.4234 27.0681C18.1594 27.6119 17.9209 28.1707 17.7094 28.7428C17.3559 29.699 17.0778 30.6926 16.8822 31.7166C16.8679 31.7917 16.854 31.867 16.8405 31.9425C16.7184 32.6267 15.7372 32.6267 15.6151 31.9425C15.6016 31.867 15.5877 31.7917 15.5734 31.7166C15.3778 30.6926 15.0997 29.699 14.7462 28.7428C14.5348 28.1707 14.2962 27.6119 14.0323 27.0681C12.204 23.3018 9.15386 20.2516 5.3876 18.4235C4.84375 18.1594 4.28497 17.9209 3.71276 17.7094ZM26.5719 42.0181C25.9032 41.8379 25.2252 41.6798 24.5386 41.5445C24.4313 41.5234 24.3238 41.5029 24.2162 41.4828L24.1835 41.4768L24.1394 41.4687C24.0715 41.4563 23.9969 41.443 23.8477 41.4163L23.7956 41.407C22.7016 41.2 22.7016 39.6334 23.7956 39.4264L23.8477 39.4171C23.9969 39.3904 24.0715 39.3771 24.1394 39.3647L24.1835 39.3566L24.2162 39.3506C24.3238 39.3305 24.4313 39.31 24.5385 39.2889C25.2251 39.1536 25.9032 38.9955 26.5719 38.8153C27.143 38.6614 27.7074 38.4913 28.2646 38.3056C37.2786 35.3009 44.3717 28.2078 47.3764 19.1938C47.5621 18.6366 47.7322 18.0722 47.8861 17.501C48.0663 16.8323 48.2245 16.1542 48.3597 15.4677C48.3808 15.3604 48.4014 15.253 48.4214 15.1454L48.4275 15.1127L48.4355 15.0686C48.4478 15.0014 48.461 14.9278 48.487 14.7819L48.4879 14.7769L48.4972 14.7248C48.7042 13.6307 50.2709 13.6307 50.4779 14.7248L50.4872 14.7769C50.5139 14.926 50.5272 15.0006 50.5396 15.0686L50.5476 15.1127L50.5537 15.1454C50.5737 15.253 50.5943 15.3604 50.6153 15.4677C50.7506 16.1543 50.9087 16.8323 51.0889 17.501C51.2428 18.0722 51.413 18.6366 51.5986 19.1938C54.6034 28.2078 61.6965 35.3009 70.7105 38.3056C71.2676 38.4913 71.832 38.6614 72.4033 38.8153C73.0719 38.9955 73.75 39.1536 74.4366 39.2889C74.5438 39.31 74.6512 39.3305 74.7589 39.3506L74.7915 39.3566L74.8357 39.3647C74.9036 39.3771 74.9782 39.3904 75.1274 39.4171L75.1795 39.4264C76.2735 39.6334 76.2735 41.2 75.1795 41.407L75.1274 41.4163L74.9695 41.4445L74.8357 41.4687L74.7915 41.4768L74.7589 41.4828C74.6512 41.5029 74.5438 41.5234 74.4366 41.5445C73.75 41.6798 73.0719 41.8379 72.4033 42.0181C71.832 42.172 71.2676 42.3421 70.7105 42.5278C61.6965 45.5326 54.6034 52.6256 51.5986 61.6396C51.413 62.1968 51.2428 62.7612 51.0889 63.3325C50.9087 64.0011 50.7506 64.6792 50.6153 65.3657C50.5943 65.473 50.5737 65.5804 50.5537 65.6881L50.5476 65.7207L50.5396 65.7649L50.5215 65.8642L50.4883 66.0508L50.4779 66.1086C50.2709 67.2027 48.7042 67.2027 48.4972 66.1086L48.4879 66.0565C48.4613 65.9077 48.4479 65.8327 48.4355 65.7649L48.4275 65.7207L48.4214 65.6881C48.4014 65.5804 48.3808 65.473 48.3597 65.3657C48.2245 64.6791 48.0663 64.0011 47.8861 63.3325C47.7322 62.7612 47.5621 62.1968 47.3764 61.6396C44.3717 52.6256 37.2786 45.5326 28.2646 42.5278C27.7074 42.3421 27.143 42.172 26.5719 42.0181ZM11.4849 63.0032C12.6347 63.2228 13.7239 63.6072 14.7274 64.131C15.1738 64.364 15.6031 64.6246 16.0132 64.9106C17.156 65.7073 18.1497 66.7011 18.9465 67.8438C19.2325 68.254 19.4931 68.6833 19.726 69.1296C20.2499 70.1331 20.6342 71.2224 20.8538 72.3723C20.8629 72.4197 20.8718 72.4673 20.8802 72.515C20.9573 72.9471 21.5771 72.9471 21.6542 72.515C21.6626 72.4673 21.6714 72.4197 21.6805 72.3723C21.9002 71.2224 22.2845 70.1331 22.8083 69.1296C23.0413 68.6833 23.3019 68.254 23.5879 67.8438C24.3846 66.7011 25.3784 65.7073 26.5212 64.9106C26.9313 64.6246 27.3606 64.364 27.8069 64.131C28.8105 63.6072 29.8997 63.2228 31.0495 63.0032C31.097 62.9941 31.1446 62.9854 31.1923 62.9768C31.6243 62.8998 31.6243 62.2799 31.1923 62.2029C31.1446 62.1944 31.097 62.1856 31.0495 62.1765C29.8997 61.9569 28.8105 61.5725 27.8069 61.0487C27.3606 60.8157 26.9313 60.5552 26.5212 60.2691C25.3784 59.4724 24.3846 58.4787 23.5879 57.3359C23.3019 56.9257 23.0413 56.4964 22.8083 56.0501C22.2845 55.0467 21.9002 53.9573 21.6805 52.8075C21.6714 52.76 21.6626 52.7124 21.6542 52.6648C21.5771 52.2327 20.9573 52.2327 20.8802 52.6648C20.8718 52.7124 20.8629 52.76 20.8538 52.8075C20.6342 53.9573 20.2499 55.0467 19.726 56.0501C19.4931 56.4964 19.2325 56.9257 18.9465 57.3359C18.1497 58.4787 17.156 59.4724 16.0132 60.2691C15.6031 60.5552 15.1738 60.8157 14.7274 61.0487C13.7239 61.5725 12.6347 61.9569 11.4849 62.1765C11.4374 62.1856 11.3898 62.1944 11.342 62.2029C10.9101 62.2799 10.9101 62.8998 11.342 62.9768C11.3898 62.9854 11.4374 62.9941 11.4849 63.0032Z" fill="black"/>
</svg>
