<svg width="64" height="79" viewBox="0 0 64 79" fill="none" xmlns="http://www.w3.org/2000/svg">
<path d="M5.85542 48.4974C6.40065 48.5371 6.94805 48.5371 7.49329 48.4974H18.1395C18.3567 48.4974 18.565 48.4112 18.7186 48.2576C18.8721 48.104 18.9584 47.8957 18.9584 47.6785C18.9584 47.4613 18.8721 47.253 18.7186 47.0994C18.565 46.9458 18.3567 46.8596 18.1395 46.8596C5.85542 46.8596 5.9455 46.8596 5.85542 46.8596C5.63822 46.8596 5.42992 46.9458 5.27634 47.0994C5.12276 47.253 5.03648 47.4613 5.03648 47.6785C5.03648 47.8957 5.12276 48.104 5.27634 48.2576C5.42992 48.4112 5.63822 48.4974 5.85542 48.4974Z" fill="black"/>
<path d="M5.85542 52.3301C5.93731 52.3301 5.65887 52.3301 18.1395 52.3301C18.3567 52.3301 18.565 52.2438 18.7186 52.0902C18.8721 51.9367 18.9584 51.7284 18.9584 51.5112C18.9584 51.294 18.8721 51.0857 18.7186 50.9321C18.565 50.7785 18.3567 50.6922 18.1395 50.6922C5.12656 50.6922 5.98645 50.6922 5.85542 50.6922C5.63822 50.6922 5.42992 50.7785 5.27634 50.9321C5.12276 51.0857 5.03648 51.294 5.03648 51.5112C5.03648 51.7284 5.12276 51.9367 5.27634 52.0902C5.42992 52.2438 5.63822 52.3301 5.85542 52.3301Z" fill="black"/>
<path d="M18.1313 54.5494H13.9792C13.7621 54.5494 13.5538 54.6357 13.4002 54.7893C13.2466 54.9428 13.1603 55.1511 13.1603 55.3683C13.1603 55.5855 13.2466 55.7938 13.4002 55.9474C13.5538 56.101 13.7621 56.1873 13.9792 56.1873H18.1313C18.3485 56.1873 18.5568 56.101 18.7103 55.9474C18.8639 55.7938 18.9502 55.5855 18.9502 55.3683C18.9502 55.1511 18.8639 54.9428 18.7103 54.7893C18.5568 54.6357 18.3485 54.5494 18.1313 54.5494Z" fill="black"/>
<path d="M5.85542 60.0118C6.40065 60.0514 6.94805 60.0514 7.49329 60.0118H18.1395C18.3567 60.0118 18.565 59.9255 18.7186 59.7719C18.8721 59.6183 18.9584 59.41 18.9584 59.1928C18.9584 58.9756 18.8721 58.7673 18.7186 58.6138C18.565 58.4602 18.3567 58.3739 18.1395 58.3739C5.12656 58.3739 5.98645 58.3739 5.85542 58.3739C5.63822 58.3739 5.42992 58.4602 5.27634 58.6138C5.12276 58.7673 5.03648 58.9756 5.03648 59.1928C5.03648 59.41 5.12276 59.6183 5.27634 59.7719C5.42992 59.9255 5.63822 60.0118 5.85542 60.0118Z" fill="black"/>
<path d="M5.85542 63.8771C6.40065 63.9168 6.94805 63.9168 7.49329 63.8771H18.1395C18.3567 63.8771 18.565 63.7908 18.7186 63.6372C18.8721 63.4837 18.9584 63.2754 18.9584 63.0582C18.9584 62.841 18.8721 62.6327 18.7186 62.4791C18.565 62.3255 18.3567 62.2392 18.1395 62.2392C5.12656 62.2392 5.98645 62.2392 5.85542 62.2392C5.63822 62.2392 5.42992 62.3255 5.27634 62.4791C5.12276 62.6327 5.03648 62.841 5.03648 63.0582C5.03648 63.2754 5.12276 63.4837 5.27634 63.6372C5.42992 63.7908 5.63822 63.8771 5.85542 63.8771Z" fill="black"/>
<path d="M12.2431 67.7097C12.4603 67.7097 12.6686 67.6234 12.8222 67.4699C12.9758 67.3163 13.0621 67.108 13.0621 66.8908C13.0621 66.6736 12.9758 66.4653 12.8222 66.3117C12.6686 66.1581 12.4603 66.0719 12.2431 66.0719H5.99463C5.77743 66.0719 5.56913 66.1581 5.41555 66.3117C5.26197 66.4653 5.17569 66.6736 5.17569 66.8908C5.17569 67.108 5.26197 67.3163 5.41555 67.4699C5.56913 67.6234 5.77743 67.7097 5.99463 67.7097H12.2431Z" fill="black"/>
<path d="M5.85542 56.1708C5.92093 56.1708 5.95369 56.1708 11.0393 56.1708C11.2565 56.1708 11.4648 56.0846 11.6184 55.931C11.7719 55.7774 11.8582 55.5691 11.8582 55.3519C11.8582 55.1347 11.7719 54.9264 11.6184 54.7728C11.4648 54.6193 11.2565 54.533 11.0393 54.533C5.48689 54.533 5.97826 54.533 5.85542 54.533C5.63822 54.533 5.42992 54.6193 5.27634 54.7728C5.12276 54.9264 5.03648 55.1347 5.03648 55.3519C5.03648 55.5691 5.12276 55.7774 5.27634 55.931C5.42992 56.0846 5.63822 56.1708 5.85542 56.1708Z" fill="black"/>
<path d="M63.1565 3.99642H60.6997V0.818938C60.6997 0.601742 60.6134 0.393442 60.4598 0.239861C60.3062 0.0862807 60.0979 0 59.8807 0L6.64977 0C6.43258 0 6.22428 0.0862807 6.0707 0.239861C5.91712 0.393442 5.83084 0.601742 5.83084 0.818938V11.1867H0.818938C0.601742 11.1867 0.393442 11.273 0.239861 11.4265C0.0862808 11.5801 0 11.7884 0 12.0056V36.369C0 36.5862 0.0862808 36.7945 0.239861 36.9481C0.393442 37.1017 0.601742 37.188 0.818938 37.188H5.8554V42.855H1.8508C1.6336 42.855 1.4253 42.9413 1.27172 43.0949C1.11814 43.2484 1.03186 43.4567 1.03186 43.6739V70.9036C1.03186 71.1208 1.11814 71.3291 1.27172 71.4827C1.4253 71.6363 1.6336 71.7226 1.8508 71.7226H5.8554V77.7991C5.8554 78.0163 5.94168 78.2246 6.09527 78.3781C6.24885 78.5317 6.45715 78.618 6.67434 78.618H59.9053C60.1225 78.618 60.3308 78.5317 60.4844 78.3781C60.6379 78.2246 60.7242 78.0163 60.7242 77.7991V32.8558H63.181C63.3982 32.8558 63.6065 32.7695 63.7601 32.6159C63.9137 32.4623 64 32.254 64 32.0368V4.81535C64 4.70571 63.9781 4.59717 63.9354 4.49618C63.8927 4.39518 63.8302 4.30379 63.7515 4.22741C63.6728 4.15104 63.5796 4.09124 63.4774 4.05156C63.3752 4.01188 63.2661 3.99313 63.1565 3.99642ZM1.63788 12.8246H20.4325V23.3889L18.2705 21.2269C18.1171 21.0743 17.9095 20.9887 17.6931 20.9887C17.4768 20.9887 17.2692 21.0743 17.1158 21.2269L15.0521 23.2824L11.1048 19.3351C10.9514 19.1826 10.7438 19.097 10.5274 19.097C10.3111 19.097 10.1035 19.1826 9.95009 19.3351L1.63788 27.6391V12.8246ZM20.4325 28.6628L16.2068 24.4371L17.73 22.9303L20.4734 25.6737L20.4325 28.6628ZM22.0704 12.0056C22.0704 11.7884 21.9841 11.5801 21.8305 11.4265C21.6769 11.273 21.4686 11.1867 21.2514 11.1867H14.4542V7.092H33.2407V29.7929H22.0704V12.0056ZM1.63788 35.5501V29.9485L10.5233 21.0713L20.4325 30.9804V35.5501H1.63788ZM2.66974 70.0847V44.4929H21.4562V70.0847H2.66974ZM59.0864 76.9801H7.49328V71.7226H22.2342C22.4514 71.7226 22.6597 71.6363 22.8132 71.4827C22.9668 71.3291 23.0531 71.1208 23.0531 70.9036V43.6739C23.0531 43.4567 22.9668 43.2484 22.8132 43.0949C22.6597 42.9413 22.4514 42.855 22.2342 42.855H7.49328V37.188H21.2514C21.4686 37.188 21.6769 37.1017 21.8305 36.9481C21.9841 36.7945 22.0704 36.5862 22.0704 36.369V31.4554H34.0596C34.2768 31.4554 34.4851 31.3691 34.6387 31.2155C34.7923 31.062 34.8786 30.8537 34.8786 30.6365V6.2403C34.8786 6.02311 34.7923 5.81481 34.6387 5.66123C34.4851 5.50765 34.2768 5.42137 34.0596 5.42137H13.6353C13.4181 5.42137 13.2098 5.50765 13.0562 5.66123C12.9027 5.81481 12.8164 6.02311 12.8164 6.2403V11.1539H7.49328V1.63788H59.0864V3.99642H42.7076C42.4904 3.99642 42.2821 4.0827 42.1285 4.23628C41.9749 4.38986 41.8887 4.59816 41.8887 4.81535V32.0368C41.8887 32.254 41.9749 32.4623 42.1285 32.6159C42.2821 32.7695 42.4904 32.8558 42.7076 32.8558H59.0864V76.9801ZM62.3621 31.2179H43.5511V5.63429H62.3375L62.3621 31.2179Z" fill="black"/>
<path d="M59.0863 8.01735C59.0044 8.01735 58.8898 8.01735 46.876 8.01735C46.6588 8.01735 46.4505 8.10363 46.2969 8.25721C46.1433 8.41079 46.057 8.61909 46.057 8.83629C46.057 9.05348 46.1433 9.26178 46.2969 9.41536C46.4505 9.56894 46.6588 9.65522 46.876 9.65522C58.8406 9.65522 59.0044 9.65522 59.0863 9.65522C59.3035 9.65522 59.5118 9.56894 59.6654 9.41536C59.819 9.26178 59.9053 9.05348 59.9053 8.83629C59.9053 8.61909 59.819 8.41079 59.6654 8.25721C59.5118 8.10363 59.3035 8.01735 59.0863 8.01735Z" fill="black"/>
<path d="M59.0863 11.8581C59.0044 11.8581 58.8898 11.8581 46.876 11.8581C46.6588 11.8581 46.4505 11.9444 46.2969 12.098C46.1433 12.2516 46.057 12.4599 46.057 12.6771C46.057 12.8943 46.1433 13.1026 46.2969 13.2562C46.4505 13.4097 46.6588 13.496 46.876 13.496C58.8406 13.496 59.0044 13.496 59.0863 13.496C59.3035 13.496 59.5118 13.4097 59.6654 13.2562C59.819 13.1026 59.9053 12.8943 59.9053 12.6771C59.9053 12.4599 59.819 12.2516 59.6654 12.098C59.5118 11.9444 59.3035 11.8581 59.0863 11.8581Z" fill="black"/>
<path d="M59.0864 15.699C59.0045 15.699 58.4312 15.699 54.8606 15.699C54.6434 15.699 54.4352 15.7853 54.2816 15.9389C54.128 16.0924 54.0417 16.3007 54.0417 16.5179C54.0417 16.7351 54.128 16.9434 54.2816 17.097C54.4352 17.2506 54.6434 17.3369 54.8606 17.3369C58.4476 17.3369 59.0045 17.3369 59.0864 17.3369C59.3036 17.3369 59.5119 17.2506 59.6654 17.097C59.819 16.9434 59.9053 16.7351 59.9053 16.5179C59.9053 16.3007 59.819 16.0924 59.6654 15.9389C59.5119 15.7853 59.3036 15.699 59.0864 15.699Z" fill="black"/>
<path d="M59.0863 19.5316C59.0044 19.5316 58.8898 19.5316 46.876 19.5316C46.6588 19.5316 46.4505 19.6179 46.2969 19.7715C46.1433 19.9251 46.057 20.1334 46.057 20.3506C46.057 20.5678 46.1433 20.7761 46.2969 20.9296C46.4505 21.0832 46.6588 21.1695 46.876 21.1695C58.8406 21.1695 59.0044 21.1695 59.0863 21.1695C59.3035 21.1695 59.5118 21.0832 59.6654 20.9296C59.819 20.7761 59.9053 20.5678 59.9053 20.3506C59.9053 20.1334 59.819 19.9251 59.6654 19.7715C59.5118 19.6179 59.3035 19.5316 59.0863 19.5316Z" fill="black"/>
<path d="M59.0863 23.3724C59.0044 23.3724 58.8898 23.3724 46.876 23.3724C46.6588 23.3724 46.4505 23.4587 46.2969 23.6123C46.1433 23.7659 46.057 23.9742 46.057 24.1914C46.057 24.4085 46.1433 24.6168 46.2969 24.7704C46.4505 24.924 46.6588 25.0103 46.876 25.0103C58.8406 25.0103 59.0044 25.0103 59.0863 25.0103C59.3035 25.0103 59.5118 24.924 59.6654 24.7704C59.819 24.6168 59.9053 24.4085 59.9053 24.1914C59.9053 23.9742 59.819 23.7659 59.6654 23.6123C59.5118 23.4587 59.3035 23.3724 59.0863 23.3724Z" fill="black"/>
<path d="M53.1245 27.205H46.876C46.6588 27.205 46.4505 27.2913 46.2969 27.4449C46.1433 27.5985 46.057 27.8068 46.057 28.024C46.057 28.2412 46.1433 28.4495 46.2969 28.603C46.4505 28.7566 46.6588 28.8429 46.876 28.8429H53.1245C53.3417 28.8429 53.55 28.7566 53.7035 28.603C53.8571 28.4495 53.9434 28.2412 53.9434 28.024C53.9434 27.8068 53.8571 27.5985 53.7035 27.4449C53.55 27.2913 53.3417 27.205 53.1245 27.205Z" fill="black"/>
<path d="M46.876 17.3287H51.9206C52.1378 17.3287 52.3461 17.2424 52.4997 17.0888C52.6533 16.9353 52.7396 16.727 52.7396 16.5098C52.7396 16.2926 52.6533 16.0843 52.4997 15.9307C52.3461 15.7771 52.1378 15.6908 51.9206 15.6908H46.876C46.6588 15.6908 46.4505 15.7771 46.2969 15.9307C46.1433 16.0843 46.057 16.2926 46.057 16.5098C46.057 16.727 46.1433 16.9353 46.2969 17.0888C46.4505 17.2424 46.6588 17.3287 46.876 17.3287Z" fill="black"/>
<path d="M28.3762 40.3982V66.7188C28.3762 66.936 28.4625 67.1443 28.6161 67.2979C28.7697 67.4515 28.978 67.5378 29.1952 67.5378H55.5158C55.733 67.5378 55.9413 67.4515 56.0949 67.2979C56.2485 67.1443 56.3348 66.936 56.3348 66.7188V40.3982C56.3348 40.181 56.2485 39.9727 56.0949 39.8191C55.9413 39.6655 55.733 39.5792 55.5158 39.5792H29.1952C28.978 39.5792 28.7697 39.6655 28.6161 39.8191C28.4625 39.9727 28.3762 40.181 28.3762 40.3982ZM30.0141 41.2171H54.6969V65.8999H30.0141V41.2171Z" fill="black"/>
<path d="M50.6513 43.6084H34.0596C33.8425 43.6084 33.6342 43.6947 33.4806 43.8483C33.327 44.0018 33.2407 44.2101 33.2407 44.4273V48.1289C33.2407 48.3461 33.327 48.5544 33.4806 48.708C33.6342 48.8616 33.8425 48.9479 34.0596 48.9479H39.6776V62.6978C39.6776 62.915 39.7638 63.1233 39.9174 63.2769C40.071 63.4305 40.2793 63.5168 40.4965 63.5168H44.2063C44.4235 63.5168 44.6318 63.4305 44.7854 63.2769C44.9389 63.1233 45.0252 62.915 45.0252 62.6978V48.9479H50.6513C50.8685 48.9479 51.0768 48.8616 51.2304 48.708C51.384 48.5544 51.4703 48.3461 51.4703 48.1289V44.4273C51.4703 44.2101 51.384 44.0018 51.2304 43.8483C51.0768 43.6947 50.8685 43.6084 50.6513 43.6084ZM49.8324 47.31H44.2063C43.9891 47.31 43.7808 47.3963 43.6272 47.5498C43.4736 47.7034 43.3874 47.9117 43.3874 48.1289V61.8789H41.3154V48.1289C41.3154 47.9117 41.2292 47.7034 41.0756 47.5498C40.922 47.3963 40.7137 47.31 40.4965 47.31H34.8786V45.2463H49.8324V47.31Z" fill="black"/>
<path d="M55.5158 69.233C55.2986 69.233 55.0903 69.3192 54.9367 69.4728C54.7832 69.6264 54.6969 69.8347 54.6969 70.0519V70.9527H30.0141V70.0519C30.0141 69.8347 29.9278 69.6264 29.7742 69.4728C29.6207 69.3192 29.4124 69.233 29.1952 69.233C28.978 69.233 28.7697 69.3192 28.6161 69.4728C28.4625 69.6264 28.3762 69.8347 28.3762 70.0519V73.4914C28.3762 73.7086 28.4625 73.9169 28.6161 74.0705C28.7697 74.2241 28.978 74.3104 29.1952 74.3104C29.4124 74.3104 29.6207 74.2241 29.7742 74.0705C29.9278 73.9169 30.0141 73.7086 30.0141 73.4914V72.5906H54.6969V73.4914C54.6969 73.7086 54.7832 73.9169 54.9367 74.0705C55.0903 74.2241 55.2986 74.3104 55.5158 74.3104C55.733 74.3104 55.9413 74.2241 56.0949 74.0705C56.2485 73.9169 56.3348 73.7086 56.3348 73.4914V70.0519C56.3348 69.8347 56.2485 69.6264 56.0949 69.4728C55.9413 69.3192 55.733 69.233 55.5158 69.233Z" fill="black"/>
</svg>
