<svg width="72" height="71" viewBox="0 0 72 71" fill="none" xmlns="http://www.w3.org/2000/svg">
<path d="M69.0025 0H2.9943C1.33745 0.00333753 0 1.35176 0 3.01394V22.84C0 24.5022 1.34077 25.8473 2.99762 25.8506H69.0024C70.6592 25.8473 72 24.5022 72 22.84V3.01394C72 1.35176 70.6593 0.0033324 69.0025 0ZM64.5143 15.3906L65.4758 18.3612L62.9573 16.5255C62.2653 16.0181 61.3304 16.0181 60.6383 16.5255L58.1198 18.3612L59.0813 15.3906C59.3475 14.5762 59.058 13.6816 58.3627 13.1777L55.8441 11.342H58.9582C59.8132 11.342 60.5718 10.7912 60.8346 9.97345L61.7961 7.00283L62.7576 9.97345H62.761C63.0238 10.7912 63.779 11.342 64.634 11.342H67.7481L65.2296 13.1777C64.5376 13.6817 64.2482 14.5762 64.5143 15.3906ZM47.3139 15.3906L48.2754 18.3612L45.7569 16.5255C45.0682 16.0181 44.1299 16.0181 43.4379 16.5255L40.9193 18.3612L41.8809 15.3906C42.147 14.5762 41.8576 13.6816 41.1656 13.1777L38.647 11.342H41.7611C42.6161 11.342 43.3746 10.7912 43.6342 9.97345L44.5957 7.00283L45.5572 9.97345H45.5605C45.8233 10.7912 46.5819 11.342 47.4369 11.342H50.5477L48.0324 13.1777C47.3371 13.6817 47.0478 14.5762 47.3139 15.3906ZM30.1134 15.3906L31.0749 18.3612L28.5564 16.5255H28.5597C27.8677 16.0181 26.9295 16.0181 26.2408 16.5255L23.7222 18.3612L24.6837 15.3906C24.9499 14.5762 24.6604 13.6816 23.9651 13.1777L21.4499 11.342H24.5639C25.419 11.342 26.1775 10.7912 26.437 9.97345L27.3985 7.00283L28.36 9.97345H28.3634C28.6262 10.7912 29.3848 11.342 30.2398 11.342H33.3538L30.832 13.1777C30.14 13.6817 29.8506 14.5762 30.1167 15.3906H30.1134ZM12.913 15.3906L13.8745 18.3612L11.356 16.5255H11.3593C10.6673 16.0181 9.73233 16.0181 9.04031 16.5255L6.52178 18.3612L7.48329 15.3906C7.74945 14.5762 7.46 13.6816 6.76798 13.1777L4.24945 11.342H7.3635C8.21854 11.342 8.97376 10.7912 9.2366 9.97345L10.1981 7.00283L11.1596 9.97345H11.1629C11.4258 10.7912 12.1843 11.342 13.0394 11.342H16.1534L13.6349 13.1777C12.9395 13.6817 12.6501 14.5762 12.9162 15.3906H12.913ZM62.5656 45.2831V69.1978C62.5656 69.7719 62.1031 70.2358 61.5275 70.2392H56.6567C56.0811 70.2392 55.6186 69.7719 55.6186 69.1978V45.2831C55.6186 44.7057 56.0811 44.2417 56.6567 44.2417H61.5308H61.5275C62.1031 44.2417 62.5656 44.7056 62.5656 45.2831ZM26.8735 49.1582V49.1549C25.9652 49.1549 25.2266 48.4139 25.2233 47.4994V45.667C25.2266 44.7525 25.9652 44.0115 26.8735 44.0115H33.3579C33.1549 45.7271 33.2315 47.466 33.5874 49.1549L26.8735 49.1582ZM39.1169 67.5121V69.3445C39.1169 70.259 38.3783 71 37.4667 71H28.2111C27.2995 71 26.5609 70.259 26.5609 69.3445V67.5121C26.5609 66.5976 27.2995 65.8566 28.2078 65.8566H37.4702C38.3818 65.8566 39.1204 66.5975 39.1204 67.5121H39.1169ZM34.0599 41.8782H33.0851V27.9864H38.904V38.7637C38.1754 38.8672 37.4667 39.0674 36.7913 39.3612C35.6368 39.8852 34.682 40.763 34.0632 41.8745L34.0599 41.8782ZM25.7423 54.7849V52.9458C25.7457 52.0313 26.4843 51.2903 27.3925 51.2903H33.9867C34.4858 53.6534 35.5837 55.9564 39.3433 55.9932H39.3399C39.0571 56.2702 38.6778 56.4304 38.2819 56.4371H27.3927C26.4844 56.4337 25.7491 55.6928 25.7458 54.7816L25.7423 54.7849ZM70.5904 47.2716V47.2682C71.0196 47.6855 71.2591 48.2596 71.2591 48.857V65.6489C71.2591 66.243 71.0229 66.8138 70.6004 67.2277C70.1779 67.6449 69.6089 67.8752 69.0167 67.8686L64.6949 67.685V46.8746L69.0101 46.6376H69.0533H69.05C69.6289 46.6342 70.1845 46.8612 70.5937 47.2684L70.5904 47.2716ZM39.4959 60.2286V62.061C39.4959 62.9756 38.7573 63.7166 37.8457 63.7166H27.838C26.9264 63.7166 26.1878 62.9756 26.1878 62.061V60.2286C26.1878 59.3141 26.9264 58.5731 27.838 58.5731H37.8457C38.7573 58.5731 39.4959 59.3141 39.4959 60.2286ZM45.5544 40.7127L53.4827 45.5692L53.486 68.7499L47.1114 70.9995H40.87C41.1195 70.4855 41.2492 69.9181 41.2492 69.344V67.5116C41.2526 66.5703 40.9032 65.6658 40.2744 64.9682C41.1328 64.2506 41.6285 63.1859 41.6285 62.061V60.2286C41.6318 59.2874 41.2792 58.3795 40.6504 57.6819C41.5154 56.951 42.0278 55.8829 42.061 54.7447C44.0406 52.4317 43.9042 47.5352 43.8842 46.9744C43.8609 46.3836 43.3652 45.9263 42.7763 45.9497C42.1874 45.9764 41.7316 46.4738 41.7549 47.0645C41.8281 48.8969 41.5154 52.2481 40.3709 53.4429V53.4396C40.1346 53.7133 39.7953 53.8668 39.4359 53.8602C37.0405 53.8602 36.4383 52.8355 36.0091 50.5358L35.9326 50.1186C35.1241 45.8396 34.7781 42.7021 37.7226 41.2868C39.3695 40.4958 43.7179 40.5926 45.5577 40.7128L45.5544 40.7127Z" fill="black"/>
</svg>
